<svg id="user" xmlns="http://www.w3.org/2000/svg" width="28.644" height="32" viewBox="0 0 28.644 32">
  <g id="Group_3" data-name="Group 3" transform="translate(5.825)">
    <g id="Group_2" data-name="Group 2">
      <path id="Path_16" data-name="Path 16" d="M119.291,0a8.5,8.5,0,1,0,8.5,8.5A8.522,8.522,0,0,0,119.291,0Z" transform="translate(-110.791)"/>
    </g>
  </g>
  <g id="Group_5" data-name="Group 5" transform="translate(0 16.871)">
    <g id="Group_4" data-name="Group 4" transform="translate(0)">
      <path id="Path_17" data-name="Path 17" d="M52.747,254.025a7.982,7.982,0,0,0-.834-1.559,10.3,10.3,0,0,0-7.147-4.6,1.5,1.5,0,0,0-1.052.26,8.7,8.7,0,0,1-10.449,0,1.338,1.338,0,0,0-1.052-.26,10.229,10.229,0,0,0-7.147,4.6,9.2,9.2,0,0,0-.834,1.559.805.805,0,0,0,.036.705,14.835,14.835,0,0,0,.98,1.485,14.013,14.013,0,0,0,1.669,1.93,21.9,21.9,0,0,0,1.669,1.485,16.142,16.142,0,0,0,21.406-1.485,17.026,17.026,0,0,0,1.669-1.93,13.035,13.035,0,0,0,.98-1.485A.645.645,0,0,0,52.747,254.025Z" transform="translate(-24.165 -247.841)"/>
    </g>
  </g>
</svg>
